<svg enable-background="new 0 0 275 87.9" viewBox="0 0 275 87.9" xmlns="http://www.w3.org/2000/svg"><path d="m260.3 87.8h-245.6c-7.8 0-14.2-6.3-14.2-14.2v-73.5h274v73.5c0 7.8-6.4 14.2-14.2 14.2z" fill="#fff"/><path d="m21.8 73.3c0-.8.1-1.6.5-2.4.3-.8.8-1.5 1.3-2 .6-.6 1.3-1 2.1-1.4.8-.3 1.7-.5 2.7-.5 1.9 0 3.3.3 4.2.8l-.4 1.4h-.1c-.4-.4-.8-.6-1.2-.9-.4-.2-.8-.4-1.2-.5s-.8-.2-1.2-.2c-.8 0-1.6.2-2.4.6-.7.4-1.3 1.1-1.8 1.9s-.7 1.8-.7 2.8v.2c0 1 .2 1.8.4 2.5.3.7.6 1.3 1.1 1.7s1 .8 1.5 1c.6.2 1.2.3 1.8.3.7 0 1.4-.1 2.1-.4.7-.2 1.3-.6 1.8-1l-.1 1.1c-.4.3-.8.5-1.3.6-.4.2-.9.3-1.4.4-.4.1-.9.1-1.3.1-.8 0-1.7-.1-2.4-.4-.8-.3-1.5-.7-2.1-1.3s-1.1-1.3-1.4-2c-.3-.5-.5-1.4-.5-2.4" fill="#231f20"/><path d="m33.4 79.3h.4.3c.2 0 .4.1.5.1l1.8-4.9h2.2v-.9h-1.8l1.8-4.3v-2.1l-5.4 12.1z" fill="#231f20"/><path d="m39.1 66.9h-.4l-.1.3.1 2.1 1.8 4.3h-1.8v.9h2.1l1.9 4.9c.2-.1.4-.1.7-.1h.4s.4 0 .5 0 .2 0 .3 0z" fill="#231f20"/><path d="m44.9 73.3c0-.8.2-1.6.5-2.4s.8-1.5 1.3-2c.6-.6 1.3-1 2.1-1.4.8-.3 1.7-.5 2.7-.5 1.9 0 3.3.3 4.2.8l-.4 1.4h-.1c-.4-.4-.8-.6-1.1-.9-.4-.2-.8-.4-1.2-.5s-.8-.2-1.2-.2c-.8 0-1.6.2-2.4.6-.7.4-1.3 1.1-1.8 1.9-.4.8-.7 1.8-.7 2.8v.2c0 1 .2 1.8.4 2.5.3.7.6 1.3 1.1 1.7s1 .8 1.6 1 1.1.3 1.8.3 1.4-.1 2.1-.4c.7-.2 1.3-.6 1.8-1l-.1 1.1c-.4.3-.9.5-1.3.6-.4.2-.9.3-1.4.4s-.9.1-1.3.1c-.9 0-1.7-.1-2.4-.4-.8-.3-1.5-.7-2.1-1.3s-1.1-1.3-1.4-2c-.6-.5-.7-1.4-.7-2.4" fill="#d62129"/><path d="m60.6 79.3v-11.4c-.2 0-.6 0-1.1.1-.5 0-1 .1-1.5.2s-.9.1-1.3.2c.1-.2.1-.4.1-.6s0-.4-.1-.6h9.4c-.1.2-.1.4-.1.6s0 .4.1.6c-.2 0-.7-.1-1.4-.2s-1.2-.1-1.6-.2c-.4 0-.7 0-.9 0v11.4c-.2-.1-.4-.1-.7-.1-.3-.1-.6 0-.9 0" fill="#231f20"/><path d="m67.5 74.6v-7.5c.4.1.7.1.9.1s.5 0 .8-.1v7.3c0 1 .1 1.9.5 2.6.3.7.8 1.1 1.3 1.4.6.3 1.2.5 2 .5.9 0 1.6-.2 2.2-.5s1-.8 1.2-1.4c.3-.6.4-1.4.5-2.4v-7.4c.2.1.4.1.6.1s.4 0 .6-.1v7.1c0 1.1-.2 2.1-.5 2.9-.4.8-.9 1.4-1.7 1.9-.8.4-1.8.7-3 .7h-.2s-.1 0-.2 0c-1.2 0-2.2-.2-3-.7-.7-.5-1.3-1.1-1.6-1.8-.2-.9-.4-1.8-.4-2.7" fill="#231f20"/><path d="m80.4 69.8c.2-1.1.6-1.8 1.3-2.3s1.6-.7 2.5-.7c.6 0 1.2.1 1.7.3s.9.5 1.1.7c-.2.2-.4.7-.6 1.4h-.3c0-.2-.2-.4-.3-.7-.2-.2-.4-.4-.8-.6-.3-.2-.7-.2-1.1-.2-.3 0-.7.1-1 .3s-.6.5-.8.8-.3.7-.3 1c0 .8.5 1.5 1.6 2l2 .8c.7.3 1.2.7 1.5 1.2s.5 1.1.5 1.7c0 .7-.2 1.3-.6 1.9s-.9 1.1-1.6 1.5-1.5.6-2.3.6c-.5 0-1.1-.1-1.6-.3-.6-.2-1-.5-1.3-.8.1-.3.2-.6.2-.8s0-.5 0-.9h.3c.4.6.7 1 1.1 1.2.3.3.6.4.8.5.3.1.5.1.9.1.5 0 .9-.1 1.3-.3s.6-.5.8-.9.3-.8.3-1.1c0-.5-.1-1-.4-1.4s-.6-.7-1.2-.9l-1.8-.8c-.7-.3-1.1-.6-1.4-1-.3-.3-.5-.7-.6-1 .2-.3.1-.7.1-1.3" fill="#231f20"/><path d="m109.7 51.7-9.1-1.3 7.6-42.4 9.1 1.4z" fill="#db293a"/><path d="m116.3 15.2-9.1-1.4 1.1-5.8s2.2-1 4.5-.8c2.2.3 4.6 2.1 4.6 2.1z" fill="#231f20"/><path d="m109.7 51.7-4.9-.8-1.1-2.2-.7 2-2.4-.3 1.2 9.5 3.5.5z" fill="#fdcf9c"/><path d="m101.8 59.9.7 5.8 2.8-5.3z" fill="#231f20"/><g fill="#2d96c4"><path d="m26.5 44.4c3.9 0 6.8 0 8.9-.2l6.6-1.3v-3.1c0-5.3-1.5-9.3-4.3-11.8-2.7-2.5-6.4-3.5-10.8-3.5h-2.5c-1.9.2-3.7.8-5.4 1.7-2.5 1.2-4.5 2.7-6.4 3.9-1.9 1.4-3.1 3.1-3.9 5.2-1 2.5-1.5 5.8-1.5 9.7 0 6 1.6 10.7 5 14.1 3.1 3.1 7.2 4.7 12.2 4.9h1.6c2.5 0 4.8-.2 7-.8 2.1-.6 4.2-1.6 6.2-2.7l1.6-3.9-1-1c-1.4 1-2.9 1.4-4.5 1.8-1.5.4-2.9.6-4.6.6-2.3 0-4.5-.4-6.4-1.5-.8-.4-1.6-1-2.5-1.8-2.3-2.3-3.7-5.8-4.2-10.4h6.6zm-8.9-4.4c.2-3.5.6-6 1-7.2.6-1.3 1.2-2.3 2.3-2.9 1-.8 2.3-1 3.5-1.2h.4c1.9 0 3.5.8 4.7 2.3 1.2 1.6 1.9 3.9 1.9 7.2v1.9c-2.5.2-4.6.4-6.6.4h-.4c-2.3-.1-4.5-.2-6.8-.5z"/><path d="m88.7 59.1c-.4-.2-.6-.8-.8-1.5-.2-1-.2-4.2-.2-9.5l.2-31.4c0-3.9.2-7.9.4-12.2l-1-1c-4.4 1.9-9.5 3.1-15.9 4v2.9c3.1 0 5 .2 5.4.4s.6.6.8 1c.2.6.2 3.1.2 7.4v7c-1.4-.6-2.9-1.1-4.1-1.3-1.5-.4-2.7-.4-4.2-.4h-.8c-1.5 0-2.9.2-4.2.8-1.6.6-3.9 2.1-7.2 4.4-2.5 1.6-4.2 3.1-5 4.1-.8 1.2-1.6 2.9-2.3 5-.4 2.3-.8 4.8-.8 7.2 0 5.6 1.5 10 4.6 13.1 2.9 3.3 6.6 4.9 11 4.9 1.2 0 2.5-.2 3.9-.6.2 0 .2-.2.4-.2 3.9-3.3 6.8-5.6 8.7-6.8-.2 1.4-.4 3.7-.6 6.4l.6.4c1.9-.2 4.2-.2 6.4-.2 3.1 0 6.2 0 9.5.2v-3.3c-2.9-.2-4.6-.4-5-.8zm-11-17.6c0 6-.2 9.3-.4 10.3-.2.8-1.2 1.9-2.9 2.9-1.6 1.2-3.3 1.6-5.2 1.6h-.6c-2.5 0-4.7-1.2-6.4-3.5s-2.7-5.8-2.7-10.5.8-8.1 2.3-10c1.4-2.1 3.5-3.1 6.4-3.1 0 0 3.7.6 5.2 1.5 1.6.8 3.1 2.3 4.3 3.9z"/><path d="m116.8 31.1 5.4-3.5c-.2-4.5-.2-8.9-.4-12.4 3.7-1.1 7-2.5 10.3-4.2l1.2 1.1c-.6 3.9-1 9.1-1.2 15.5 1.2.2 2.5.4 3.5.4 2.7 0 5.2-.2 7.3-.6l.4.2-.4 1.5c-.4 1.6-.6 2.9-.8 4.2-3.1-.2-5.4-.2-6.8-.2-1.1 0-2.1 0-3.1.2 0 2.6-.2 4.9-.2 7 0 9.1.4 14 .8 15.3.6 1 1.9 1.6 3.9 1.6.4 0 1.1 0 1.6-.2.6 0 1.5-.2 2.3-.4l.6 1.5c-1.7 1.9-3.1 3.5-4.6 5.6-1 .2-1.9.2-2.7.4h-2.3c-2.3 0-4.1-.4-5.6-1-1.6-.8-2.7-1.9-3.3-3.1-.8-1.2-1-3.1-1-5.4 0-1.2 0-4.6.2-10.1 0-4.7.2-8.5.2-11.1l-2.1-.2c-.9 0-2.1.2-3.3.2v-2.3z"/><path d="m178 59.2c-.4-.4-.6-.6-.9-1-.2-.9-.2-2.7-.2-6 0-2.1 0-5 .2-8.3 0-3.5.2-5.8.2-7 0-3.3-.6-5.6-1.5-7.2-.8-1.7-2.5-2.9-4.3-3.9-2.1-.9-4.5-1.3-7.6-1.3h-2.5c-1.2.2-2.3.4-3.1.6-1.6.6-4.7 2.3-8.7 4.7v1.6 1.7 1.8l2.7.6 1.9-4.2c.6-.4 1.4-.8 2.3-.8.8-.2 1.4-.4 2.2-.4 1.1 0 1.9.2 2.7.4 1.6.4 3.1 1.2 4.2 2.7 1 1.2 1.5 3.5 1.6 6.8-2.1.4-3.9.6-5.8 1-6.2 1.5-10.3 2.9-12.4 4.6-2.1 1.6-3.1 4.5-3.1 8.4 0 3.1.8 5.6 2.2 7.3 1.7 1.6 3.7 2.5 6.6 2.5 1 0 2.5-.2 3.9-.4l2.7-2.1 5.8-4.3-.4 5.6.4.4c2.3-.2 4.6-.2 7-.2 1.6 0 3.3 0 5 .2h3.1v-3.1c-2.4-.2-3.8-.4-4.2-.7zm-10.8-5.8c-2.1 2.1-3.9 3.1-5.8 3.3h-.8c-1.2 0-2.5-.2-3.5-1.2-.8-.8-1.2-2.3-1.2-3.7 0-2.1.6-3.7 2.1-5 .8-.6 1.9-1 3.5-1.6s3.5-1 5.8-1.6v9.8z"/><path d="m223.9 57c-1.2-.4-3.5-.6-6.8-.6h-11.8c-2.7-.2-4.1-.2-4.5-.2-1.9-.4-2.7-1-2.7-2.5 0-.4.2-.8.4-1.2.4-.6 1.2-1 2.5-1.9 1.5.2 2.5.2 3.3.2h1c4.2-.2 8.1-1.5 11.2-3.7 3.5-2.3 5.4-6 5.4-11 0-1-.2-2.3-.6-3.5h6.6c1-2.1 2.1-3.5 2.7-4.6l-.6-.8c-1.9.2-5.6.4-11.5.4-1.5-1.2-3.1-1.8-4.8-2.3-2.1-.6-4.5-.8-7.4-.8h-.8c-5.3 0-9.3 1.5-12.4 3.9-3.1 2.5-4.8 6-4.8 9.9 0 2.9.9 5.2 2.1 7.2 1.4 1.9 3.7 3.3 6.6 4.3-1.3 1.3-2.7 2.3-4.3 3.3l-1.3.8c-1 2.1-1.6 3.5-1.6 5 0 1.2.4 2.2 1.2 3.1.6.6 2.1 1.2 4.4 1.6l-2.9 1.6c-2.5 1.5-4.2 2.5-4.6 3.1-.8 1.2-1.2 2.7-1.2 4.7 0 3.3 1.5 6 4.3 8.3 3.1 2.1 7.7 3.1 13.9 3.1h.6c6.8 0 12.4-1.9 16.8-5.4 4.2-3.7 6.2-8 6.2-13.6 0-2.3-.4-4.2-1.2-5.6-1.1-1.2-2.2-2.2-3.4-2.8zm-23.6-26.7c1.2-1.2 2.9-2.1 4.9-2.1 2.1 0 3.7.8 4.8 2.5 1.2 1.5 1.8 3.9 1.8 7.3 0 3.1-.6 5.2-1.6 6.6-1.2 1.4-2.7 2.2-4.8 2.2h-.2c-2.3-.2-3.7-1-4.9-2.5-1.3-1.6-1.9-4.6-1.9-8.5.1-2.4.7-4 1.9-5.5zm17.4 45.5c-1.1 1.7-2.5 2.7-4.6 3.7-2.1.8-4.3 1.2-7.2 1.2h-.6c-3.5 0-6.4-.8-8.3-2.3-1.8-1.6-2.9-3.7-2.9-6.4 0-1.5.2-2.7 1.1-3.7.6-1 2.1-2.5 4.3-4.1h5.8 1.2c5 0 7.9.2 8.9.4s1.9.8 2.5 1.6c.8 1 1.2 2.7 1.2 4.3 0 2-.6 3.6-1.4 5.3z"/><path d="m252.2 44.4c3.9 0 6.9 0 8.9-.2l6.6-1.3v-3.1c0-5.3-1.5-9.3-4.3-11.8-2.7-2.5-6.4-3.5-10.8-3.5h-2.5c-1.9.2-3.7.8-5.4 1.7-2.5 1.2-4.5 2.7-6.4 3.9-1.9 1.4-3.1 3.1-3.9 5.2-1 2.5-1.5 5.8-1.5 9.7 0 6 1.6 10.7 5 14.1 3.1 3.1 7.2 4.7 12.2 4.9h1.6c2.5 0 4.7-.2 7-.8 2.1-.6 4.2-1.6 6.2-2.7l1.6-3.9-1-1c-1.5 1-2.9 1.4-4.6 1.8-1.5.4-2.9.6-4.6.6-2.2 0-4.5-.4-6.4-1.5-.8-.4-1.6-1-2.5-1.8-2.3-2.3-3.7-5.8-4.2-10.4h6.6zm-8.9-4.4c.2-3.5.6-6 1-7.2.6-1.3 1.2-2.3 2.3-2.9 1.1-.8 2.3-1 3.5-1.2h.4c1.9 0 3.5.8 4.7 2.3 1.2 1.6 1.9 3.9 1.9 7.2v1.9c-2.5.2-4.6.4-6.6.4h-.4c-2.2-.1-4.5-.2-6.8-.5z"/></g><path d="m8.1 69.6h1v3.4c.3-.7 1-1 1.8-1 .7 0 1.2.3 1.6.8s.6 1.2.6 2c0 1-.3 1.7-.7 2.2-.5.5-1 .7-1.7.7-.8 0-1.4-.3-1.8-1v.9h-.9c0-.4 0-.9 0-1.4zm.9 5.8v.4c.1.4.3.6.5.9.4.2.7.3 1 .3.5 0 .9-.2 1.2-.6s.4-.9.4-1.5-.1-1.1-.4-1.5-.7-.6-1.2-.6c-.3 0-.6.1-.9.3s-.5.5-.6.9c0 .1-.1.3-.1.4v1z" fill="#231f20"/><path d="m14.8 72.1 1.2 3.3c.1.4.3.8.4 1.1.1-.3.2-.7.3-1.2l1.1-3.2h1l-1.5 3.9c-.6 1.8-1.2 3-1.8 3.5-.2.2-.5.4-.7.5s-.4.2-.5.2l-.2-.8c.3-.1.5-.2.8-.5.3-.2.6-.6.8-1.1.1-.1.1-.2.1-.2 0-.1 0-.1-.1-.3l-2-5.1h1.1z" fill="#231f20"/></svg>